<mxfile host="Electron" agent="Mozilla/5.0 (Windows NT 10.0; Win64; x64) AppleWebKit/537.36 (KHTML, like Gecko) draw.io/25.0.2 Chrome/128.0.6613.186 Electron/32.2.5 Safari/537.36" version="25.0.2">
  <diagram name="Seite-1" id="SrqFh5oyxcoo33-7i-of">
    <mxGraphModel dx="1728" dy="997" grid="1" gridSize="10" guides="1" tooltips="1" connect="1" arrows="1" fold="1" page="1" pageScale="1" pageWidth="827" pageHeight="1169" math="0" shadow="0">
      <root>
        <mxCell id="0" />
        <mxCell id="1" parent="0" />
        <mxCell id="4YILZ2q9aPKqP9c5X9KM-10" value="Router" style="text;html=1;align=center;verticalAlign=middle;resizable=0;points=[];autosize=1;strokeColor=none;fillColor=none;" parent="1" vertex="1">
          <mxGeometry x="370" y="360" width="60" height="30" as="geometry" />
        </mxCell>
        <mxCell id="4YILZ2q9aPKqP9c5X9KM-16" value="Switch" style="text;html=1;align=center;verticalAlign=middle;resizable=0;points=[];autosize=1;strokeColor=none;fillColor=none;" parent="1" vertex="1">
          <mxGeometry x="110" y="368" width="60" height="30" as="geometry" />
        </mxCell>
        <mxCell id="4YILZ2q9aPKqP9c5X9KM-25" value="" style="group;fillColor=#dae8fc;strokeColor=#6c8ebf;" parent="1" vertex="1" connectable="0">
          <mxGeometry x="620" y="464" width="160" height="36" as="geometry" />
        </mxCell>
        <mxCell id="4YILZ2q9aPKqP9c5X9KM-17" value="" style="rounded=1;whiteSpace=wrap;html=1;strokeWidth=4;fillColor=#dae8fc;strokeColor=#6c8ebf;" parent="4YILZ2q9aPKqP9c5X9KM-25" vertex="1">
          <mxGeometry width="160" height="36" as="geometry" />
        </mxCell>
        <mxCell id="4YILZ2q9aPKqP9c5X9KM-18" value="" style="ellipse;whiteSpace=wrap;html=1;aspect=fixed;strokeWidth=3;fillColor=#dae8fc;strokeColor=#6c8ebf;" parent="4YILZ2q9aPKqP9c5X9KM-25" vertex="1">
          <mxGeometry x="20" y="12" width="12" height="12" as="geometry" />
        </mxCell>
        <mxCell id="4YILZ2q9aPKqP9c5X9KM-19" value="" style="rounded=1;whiteSpace=wrap;html=1;strokeWidth=3;fillColor=#dae8fc;strokeColor=#6c8ebf;" parent="4YILZ2q9aPKqP9c5X9KM-25" vertex="1">
          <mxGeometry x="54" y="6" width="28" height="10" as="geometry" />
        </mxCell>
        <mxCell id="4YILZ2q9aPKqP9c5X9KM-20" value="" style="rounded=1;whiteSpace=wrap;html=1;strokeWidth=3;fillColor=#dae8fc;strokeColor=#6c8ebf;" parent="4YILZ2q9aPKqP9c5X9KM-25" vertex="1">
          <mxGeometry x="88" y="6" width="28" height="10" as="geometry" />
        </mxCell>
        <mxCell id="4YILZ2q9aPKqP9c5X9KM-21" value="" style="rounded=1;whiteSpace=wrap;html=1;strokeWidth=3;fillColor=#dae8fc;strokeColor=#6c8ebf;" parent="4YILZ2q9aPKqP9c5X9KM-25" vertex="1">
          <mxGeometry x="122" y="6" width="28" height="10" as="geometry" />
        </mxCell>
        <mxCell id="4YILZ2q9aPKqP9c5X9KM-22" value="" style="rounded=1;whiteSpace=wrap;html=1;strokeWidth=3;fillColor=#dae8fc;strokeColor=#6c8ebf;" parent="4YILZ2q9aPKqP9c5X9KM-25" vertex="1">
          <mxGeometry x="54" y="20" width="28" height="10" as="geometry" />
        </mxCell>
        <mxCell id="4YILZ2q9aPKqP9c5X9KM-23" value="" style="rounded=1;whiteSpace=wrap;html=1;strokeWidth=3;fillColor=#dae8fc;strokeColor=#6c8ebf;" parent="4YILZ2q9aPKqP9c5X9KM-25" vertex="1">
          <mxGeometry x="88" y="20" width="28" height="10" as="geometry" />
        </mxCell>
        <mxCell id="4YILZ2q9aPKqP9c5X9KM-24" value="" style="rounded=1;whiteSpace=wrap;html=1;strokeWidth=3;fillColor=#dae8fc;strokeColor=#6c8ebf;" parent="4YILZ2q9aPKqP9c5X9KM-25" vertex="1">
          <mxGeometry x="122" y="20" width="28" height="10" as="geometry" />
        </mxCell>
        <mxCell id="4YILZ2q9aPKqP9c5X9KM-26" value="" style="group;fillColor=none;fillStyle=auto;container=0;" parent="1" vertex="1" connectable="0">
          <mxGeometry x="300" y="410" width="190" height="190" as="geometry" />
        </mxCell>
        <mxCell id="4YILZ2q9aPKqP9c5X9KM-28" value="Server" style="text;html=1;align=center;verticalAlign=middle;resizable=0;points=[];autosize=1;strokeColor=none;fillColor=none;" parent="1" vertex="1">
          <mxGeometry x="670" y="410" width="60" height="30" as="geometry" />
        </mxCell>
        <mxCell id="4YILZ2q9aPKqP9c5X9KM-29" value="" style="group;fillColor=#dae8fc;strokeColor=#6c8ebf;" parent="1" vertex="1" connectable="0">
          <mxGeometry x="620" y="584" width="160" height="36" as="geometry" />
        </mxCell>
        <mxCell id="4YILZ2q9aPKqP9c5X9KM-30" value="" style="rounded=1;whiteSpace=wrap;html=1;strokeWidth=4;fillColor=#dae8fc;strokeColor=#6c8ebf;" parent="4YILZ2q9aPKqP9c5X9KM-29" vertex="1">
          <mxGeometry width="160" height="36" as="geometry" />
        </mxCell>
        <mxCell id="4YILZ2q9aPKqP9c5X9KM-31" value="" style="ellipse;whiteSpace=wrap;html=1;aspect=fixed;strokeWidth=3;fillColor=#dae8fc;strokeColor=#6c8ebf;" parent="4YILZ2q9aPKqP9c5X9KM-29" vertex="1">
          <mxGeometry x="20" y="12" width="12" height="12" as="geometry" />
        </mxCell>
        <mxCell id="4YILZ2q9aPKqP9c5X9KM-32" value="" style="rounded=1;whiteSpace=wrap;html=1;strokeWidth=3;fillColor=#dae8fc;strokeColor=#6c8ebf;" parent="4YILZ2q9aPKqP9c5X9KM-29" vertex="1">
          <mxGeometry x="54" y="6" width="28" height="10" as="geometry" />
        </mxCell>
        <mxCell id="4YILZ2q9aPKqP9c5X9KM-33" value="" style="rounded=1;whiteSpace=wrap;html=1;strokeWidth=3;fillColor=#dae8fc;strokeColor=#6c8ebf;" parent="4YILZ2q9aPKqP9c5X9KM-29" vertex="1">
          <mxGeometry x="88" y="6" width="28" height="10" as="geometry" />
        </mxCell>
        <mxCell id="4YILZ2q9aPKqP9c5X9KM-34" value="" style="rounded=1;whiteSpace=wrap;html=1;strokeWidth=3;fillColor=#dae8fc;strokeColor=#6c8ebf;" parent="4YILZ2q9aPKqP9c5X9KM-29" vertex="1">
          <mxGeometry x="122" y="6" width="28" height="10" as="geometry" />
        </mxCell>
        <mxCell id="4YILZ2q9aPKqP9c5X9KM-35" value="" style="rounded=1;whiteSpace=wrap;html=1;strokeWidth=3;fillColor=#dae8fc;strokeColor=#6c8ebf;" parent="4YILZ2q9aPKqP9c5X9KM-29" vertex="1">
          <mxGeometry x="54" y="20" width="28" height="10" as="geometry" />
        </mxCell>
        <mxCell id="4YILZ2q9aPKqP9c5X9KM-36" value="" style="rounded=1;whiteSpace=wrap;html=1;strokeWidth=3;fillColor=#dae8fc;strokeColor=#6c8ebf;" parent="4YILZ2q9aPKqP9c5X9KM-29" vertex="1">
          <mxGeometry x="88" y="20" width="28" height="10" as="geometry" />
        </mxCell>
        <mxCell id="4YILZ2q9aPKqP9c5X9KM-37" value="" style="rounded=1;whiteSpace=wrap;html=1;strokeWidth=3;fillColor=#dae8fc;strokeColor=#6c8ebf;" parent="4YILZ2q9aPKqP9c5X9KM-29" vertex="1">
          <mxGeometry x="122" y="20" width="28" height="10" as="geometry" />
        </mxCell>
        <mxCell id="4YILZ2q9aPKqP9c5X9KM-39" value="" style="group;fillColor=#dae8fc;strokeColor=#6c8ebf;" parent="1" vertex="1" connectable="0">
          <mxGeometry x="620" y="629" width="160" height="36" as="geometry" />
        </mxCell>
        <mxCell id="4YILZ2q9aPKqP9c5X9KM-40" value="" style="rounded=1;whiteSpace=wrap;html=1;strokeWidth=4;fillColor=#dae8fc;strokeColor=#6c8ebf;" parent="4YILZ2q9aPKqP9c5X9KM-39" vertex="1">
          <mxGeometry width="160" height="36" as="geometry" />
        </mxCell>
        <mxCell id="4YILZ2q9aPKqP9c5X9KM-41" value="" style="ellipse;whiteSpace=wrap;html=1;aspect=fixed;strokeWidth=3;fillColor=#dae8fc;strokeColor=#6c8ebf;" parent="4YILZ2q9aPKqP9c5X9KM-39" vertex="1">
          <mxGeometry x="20" y="12" width="12" height="12" as="geometry" />
        </mxCell>
        <mxCell id="4YILZ2q9aPKqP9c5X9KM-42" value="" style="rounded=1;whiteSpace=wrap;html=1;strokeWidth=3;fillColor=#dae8fc;strokeColor=#6c8ebf;" parent="4YILZ2q9aPKqP9c5X9KM-39" vertex="1">
          <mxGeometry x="54" y="6" width="28" height="10" as="geometry" />
        </mxCell>
        <mxCell id="4YILZ2q9aPKqP9c5X9KM-43" value="" style="rounded=1;whiteSpace=wrap;html=1;strokeWidth=3;fillColor=#dae8fc;strokeColor=#6c8ebf;" parent="4YILZ2q9aPKqP9c5X9KM-39" vertex="1">
          <mxGeometry x="88" y="6" width="28" height="10" as="geometry" />
        </mxCell>
        <mxCell id="4YILZ2q9aPKqP9c5X9KM-44" value="" style="rounded=1;whiteSpace=wrap;html=1;strokeWidth=3;fillColor=#dae8fc;strokeColor=#6c8ebf;" parent="4YILZ2q9aPKqP9c5X9KM-39" vertex="1">
          <mxGeometry x="122" y="6" width="28" height="10" as="geometry" />
        </mxCell>
        <mxCell id="4YILZ2q9aPKqP9c5X9KM-45" value="" style="rounded=1;whiteSpace=wrap;html=1;strokeWidth=3;fillColor=#dae8fc;strokeColor=#6c8ebf;" parent="4YILZ2q9aPKqP9c5X9KM-39" vertex="1">
          <mxGeometry x="54" y="20" width="28" height="10" as="geometry" />
        </mxCell>
        <mxCell id="4YILZ2q9aPKqP9c5X9KM-46" value="" style="rounded=1;whiteSpace=wrap;html=1;strokeWidth=3;fillColor=#dae8fc;strokeColor=#6c8ebf;" parent="4YILZ2q9aPKqP9c5X9KM-39" vertex="1">
          <mxGeometry x="88" y="20" width="28" height="10" as="geometry" />
        </mxCell>
        <mxCell id="4YILZ2q9aPKqP9c5X9KM-47" value="" style="rounded=1;whiteSpace=wrap;html=1;strokeWidth=3;fillColor=#dae8fc;strokeColor=#6c8ebf;" parent="4YILZ2q9aPKqP9c5X9KM-39" vertex="1">
          <mxGeometry x="122" y="20" width="28" height="10" as="geometry" />
        </mxCell>
        <mxCell id="4YILZ2q9aPKqP9c5X9KM-48" value="" style="group;fillColor=#dae8fc;strokeColor=#6c8ebf;" parent="1" vertex="1" connectable="0">
          <mxGeometry x="620" y="674" width="160" height="36" as="geometry" />
        </mxCell>
        <mxCell id="4YILZ2q9aPKqP9c5X9KM-49" value="" style="rounded=1;whiteSpace=wrap;html=1;strokeWidth=4;fillColor=#dae8fc;strokeColor=#6c8ebf;" parent="4YILZ2q9aPKqP9c5X9KM-48" vertex="1">
          <mxGeometry width="160" height="36" as="geometry" />
        </mxCell>
        <mxCell id="4YILZ2q9aPKqP9c5X9KM-50" value="" style="ellipse;whiteSpace=wrap;html=1;aspect=fixed;strokeWidth=3;fillColor=#dae8fc;strokeColor=#6c8ebf;" parent="4YILZ2q9aPKqP9c5X9KM-48" vertex="1">
          <mxGeometry x="20" y="12" width="12" height="12" as="geometry" />
        </mxCell>
        <mxCell id="4YILZ2q9aPKqP9c5X9KM-51" value="" style="rounded=1;whiteSpace=wrap;html=1;strokeWidth=3;fillColor=#dae8fc;strokeColor=#6c8ebf;" parent="4YILZ2q9aPKqP9c5X9KM-48" vertex="1">
          <mxGeometry x="54" y="6" width="28" height="10" as="geometry" />
        </mxCell>
        <mxCell id="4YILZ2q9aPKqP9c5X9KM-52" value="" style="rounded=1;whiteSpace=wrap;html=1;strokeWidth=3;fillColor=#dae8fc;strokeColor=#6c8ebf;" parent="4YILZ2q9aPKqP9c5X9KM-48" vertex="1">
          <mxGeometry x="88" y="6" width="28" height="10" as="geometry" />
        </mxCell>
        <mxCell id="4YILZ2q9aPKqP9c5X9KM-53" value="" style="rounded=1;whiteSpace=wrap;html=1;strokeWidth=3;fillColor=#dae8fc;strokeColor=#6c8ebf;" parent="4YILZ2q9aPKqP9c5X9KM-48" vertex="1">
          <mxGeometry x="122" y="6" width="28" height="10" as="geometry" />
        </mxCell>
        <mxCell id="4YILZ2q9aPKqP9c5X9KM-54" value="" style="rounded=1;whiteSpace=wrap;html=1;strokeWidth=3;fillColor=#dae8fc;strokeColor=#6c8ebf;" parent="4YILZ2q9aPKqP9c5X9KM-48" vertex="1">
          <mxGeometry x="54" y="20" width="28" height="10" as="geometry" />
        </mxCell>
        <mxCell id="4YILZ2q9aPKqP9c5X9KM-55" value="" style="rounded=1;whiteSpace=wrap;html=1;strokeWidth=3;fillColor=#dae8fc;strokeColor=#6c8ebf;" parent="4YILZ2q9aPKqP9c5X9KM-48" vertex="1">
          <mxGeometry x="88" y="20" width="28" height="10" as="geometry" />
        </mxCell>
        <mxCell id="4YILZ2q9aPKqP9c5X9KM-56" value="" style="rounded=1;whiteSpace=wrap;html=1;strokeWidth=3;fillColor=#dae8fc;strokeColor=#6c8ebf;" parent="4YILZ2q9aPKqP9c5X9KM-48" vertex="1">
          <mxGeometry x="122" y="20" width="28" height="10" as="geometry" />
        </mxCell>
        <mxCell id="4YILZ2q9aPKqP9c5X9KM-57" value="Host group" style="text;html=1;align=center;verticalAlign=middle;resizable=0;points=[];autosize=1;strokeColor=none;fillColor=none;" parent="1" vertex="1">
          <mxGeometry x="650" y="540" width="80" height="30" as="geometry" />
        </mxCell>
        <mxCell id="4YILZ2q9aPKqP9c5X9KM-59" value="&lt;font style=&quot;font-size: 18px;&quot; color=&quot;#666666&quot;&gt;Firewall&lt;/font&gt;&lt;div&gt;&lt;font style=&quot;font-size: 18px;&quot; color=&quot;#666666&quot;&gt;&lt;br&gt;&lt;/font&gt;&lt;/div&gt;&lt;div&gt;&lt;font style=&quot;font-size: 18px;&quot; color=&quot;#666666&quot;&gt;&lt;br&gt;&lt;/font&gt;&lt;/div&gt;&lt;div&gt;&lt;font style=&quot;font-size: 18px;&quot; color=&quot;#666666&quot;&gt;&lt;br&gt;&lt;/font&gt;&lt;/div&gt;&lt;div&gt;&lt;font style=&quot;font-size: 18px;&quot; color=&quot;#666666&quot;&gt;&lt;br&gt;&lt;/font&gt;&lt;/div&gt;&lt;div&gt;&lt;br&gt;&lt;/div&gt;&lt;div&gt;&lt;font style=&quot;font-size: 18px;&quot; color=&quot;#666666&quot;&gt;&lt;br&gt;&lt;/font&gt;&lt;/div&gt;&lt;div&gt;&lt;br&gt;&lt;/div&gt;" style="ellipse;whiteSpace=wrap;html=1;aspect=fixed;fillColor=#dae8fc;strokeColor=#6c8ebf;" parent="1" vertex="1">
          <mxGeometry x="50" y="706" width="190" height="190" as="geometry" />
        </mxCell>
        <mxCell id="4YILZ2q9aPKqP9c5X9KM-97" value="" style="rounded=1;whiteSpace=wrap;html=1;strokeWidth=1;sketch=1;curveFitting=1;jiggle=2;fillColor=#f5f5f5;strokeColor=#666666;fontColor=#333333;" parent="1" vertex="1">
          <mxGeometry x="100" y="821" width="40" height="20" as="geometry" />
        </mxCell>
        <mxCell id="4YILZ2q9aPKqP9c5X9KM-98" value="" style="rounded=1;whiteSpace=wrap;html=1;strokeWidth=1;sketch=1;curveFitting=1;jiggle=2;fillColor=#f5f5f5;strokeColor=#666666;fontColor=#333333;" parent="1" vertex="1">
          <mxGeometry x="140" y="821" width="40" height="20" as="geometry" />
        </mxCell>
        <mxCell id="4YILZ2q9aPKqP9c5X9KM-99" value="" style="rounded=1;whiteSpace=wrap;html=1;strokeWidth=1;sketch=1;curveFitting=1;jiggle=2;fillColor=#f5f5f5;strokeColor=#666666;fontColor=#333333;" parent="1" vertex="1">
          <mxGeometry x="110" y="801" width="40" height="20" as="geometry" />
        </mxCell>
        <mxCell id="4YILZ2q9aPKqP9c5X9KM-100" value="" style="rounded=1;whiteSpace=wrap;html=1;strokeWidth=1;sketch=1;curveFitting=1;jiggle=2;fillColor=#f5f5f5;strokeColor=#666666;fontColor=#333333;" parent="1" vertex="1">
          <mxGeometry x="150" y="801" width="40" height="20" as="geometry" />
        </mxCell>
        <mxCell id="4YILZ2q9aPKqP9c5X9KM-101" value="" style="rounded=1;whiteSpace=wrap;html=1;strokeWidth=1;sketch=1;curveFitting=1;jiggle=2;fillColor=#f5f5f5;strokeColor=#666666;fontColor=#333333;" parent="1" vertex="1">
          <mxGeometry x="90" y="781" width="40" height="20" as="geometry" />
        </mxCell>
        <mxCell id="4YILZ2q9aPKqP9c5X9KM-102" value="" style="rounded=1;whiteSpace=wrap;html=1;strokeWidth=1;sketch=1;curveFitting=1;jiggle=2;fillColor=#f5f5f5;strokeColor=#666666;fontColor=#333333;" parent="1" vertex="1">
          <mxGeometry x="130" y="781" width="40" height="20" as="geometry" />
        </mxCell>
        <mxCell id="4YILZ2q9aPKqP9c5X9KM-103" value="" style="rounded=1;whiteSpace=wrap;html=1;strokeWidth=1;sketch=1;curveFitting=1;jiggle=2;fillColor=#f5f5f5;strokeColor=#666666;fontColor=#333333;" parent="1" vertex="1">
          <mxGeometry x="120" y="761" width="40" height="20" as="geometry" />
        </mxCell>
        <mxCell id="4YILZ2q9aPKqP9c5X9KM-104" value="" style="rounded=1;whiteSpace=wrap;html=1;strokeWidth=1;sketch=1;curveFitting=1;jiggle=2;fillColor=#f5f5f5;strokeColor=#666666;fontColor=#333333;" parent="1" vertex="1">
          <mxGeometry x="160" y="761" width="40" height="20" as="geometry" />
        </mxCell>
        <mxCell id="4YILZ2q9aPKqP9c5X9KM-105" value="Firewall" style="text;html=1;align=center;verticalAlign=middle;resizable=0;points=[];autosize=1;strokeColor=none;fillColor=none;" parent="1" vertex="1">
          <mxGeometry x="120" y="663" width="60" height="30" as="geometry" />
        </mxCell>
        <mxCell id="4YILZ2q9aPKqP9c5X9KM-9" value="&lt;font style=&quot;font-size: 18px;&quot; color=&quot;#666666&quot;&gt;Switch&lt;/font&gt;&lt;div&gt;&lt;font color=&quot;#666666&quot;&gt;&lt;br&gt;&lt;/font&gt;&lt;/div&gt;&lt;div&gt;&lt;font color=&quot;#666666&quot;&gt;&lt;br&gt;&lt;/font&gt;&lt;/div&gt;&lt;div&gt;&lt;font color=&quot;#666666&quot;&gt;&lt;br&gt;&lt;/font&gt;&lt;/div&gt;&lt;div&gt;&lt;font color=&quot;#666666&quot;&gt;&lt;br&gt;&lt;/font&gt;&lt;/div&gt;&lt;div&gt;&lt;font color=&quot;#666666&quot;&gt;&lt;br&gt;&lt;/font&gt;&lt;/div&gt;&lt;div&gt;&lt;font color=&quot;#666666&quot;&gt;&lt;br&gt;&lt;/font&gt;&lt;/div&gt;&lt;div&gt;&lt;font color=&quot;#666666&quot;&gt;&lt;br&gt;&lt;/font&gt;&lt;/div&gt;&lt;div&gt;&lt;font color=&quot;#666666&quot;&gt;&lt;br&gt;&lt;/font&gt;&lt;/div&gt;&lt;div&gt;&lt;br&gt;&lt;/div&gt;" style="rounded=1;whiteSpace=wrap;html=1;fillColor=#dae8fc;strokeColor=#6c8ebf;container=0;" parent="1" vertex="1">
          <mxGeometry x="60" y="420" width="160" height="160" as="geometry" />
        </mxCell>
        <mxCell id="4YILZ2q9aPKqP9c5X9KM-11" value="" style="html=1;shadow=0;dashed=0;align=center;verticalAlign=middle;shape=mxgraph.arrows2.arrow;dy=0.67;dx=21.67;direction=north;notch=0;strokeColor=#666666;rotation=90;fillColor=#f5f5f5;sketch=1;curveFitting=1;jiggle=2;fontColor=#333333;container=0;" parent="1" vertex="1">
          <mxGeometry x="130" y="418" width="50" height="78" as="geometry" />
        </mxCell>
        <mxCell id="4YILZ2q9aPKqP9c5X9KM-12" value="" style="html=1;shadow=0;dashed=0;align=center;verticalAlign=middle;shape=mxgraph.arrows2.arrow;dy=0.67;dx=21.67;direction=north;notch=0;strokeColor=#666666;rotation=90;fillColor=#f5f5f5;fontColor=#333333;sketch=1;curveFitting=1;jiggle=2;container=0;" parent="1" vertex="1">
          <mxGeometry x="146" y="484" width="50" height="70" as="geometry" />
        </mxCell>
        <mxCell id="4YILZ2q9aPKqP9c5X9KM-13" value="" style="html=1;shadow=0;dashed=0;align=center;verticalAlign=middle;shape=mxgraph.arrows2.arrow;dy=0.67;dx=21.67;direction=north;notch=0;strokeColor=#666666;rotation=-90;fillColor=#f5f5f5;fontColor=#333333;sketch=1;curveFitting=1;jiggle=2;container=0;" parent="1" vertex="1">
          <mxGeometry x="84" y="452" width="50" height="70" as="geometry" />
        </mxCell>
        <mxCell id="4YILZ2q9aPKqP9c5X9KM-15" value="" style="html=1;shadow=0;dashed=0;align=center;verticalAlign=middle;shape=mxgraph.arrows2.arrow;dy=0.67;dx=21.67;direction=north;notch=0;strokeColor=#666666;rotation=-90;fillColor=#f5f5f5;fontColor=#333333;sketch=1;curveFitting=1;jiggle=2;container=0;" parent="1" vertex="1">
          <mxGeometry x="101" y="512" width="50" height="70" as="geometry" />
        </mxCell>
        <mxCell id="4YILZ2q9aPKqP9c5X9KM-2" value="&lt;font color=&quot;#666666&quot;&gt;&amp;nbsp; &amp;nbsp; Router&amp;nbsp;&lt;/font&gt;&lt;div&gt;&lt;font color=&quot;#666666&quot;&gt;&lt;br&gt;&lt;/font&gt;&lt;/div&gt;&lt;div&gt;&lt;font color=&quot;#666666&quot;&gt;&lt;br&gt;&lt;/font&gt;&lt;/div&gt;&lt;div&gt;&lt;font color=&quot;#666666&quot;&gt;&lt;br&gt;&lt;/font&gt;&lt;/div&gt;&lt;div&gt;&lt;br&gt;&lt;/div&gt;" style="ellipse;whiteSpace=wrap;html=1;aspect=fixed;fillColor=#dae8fc;strokeColor=#6c8ebf;container=0;align=left;fontSize=18;" parent="1" vertex="1">
          <mxGeometry x="300" y="410" width="190" height="190" as="geometry" />
        </mxCell>
        <mxCell id="4YILZ2q9aPKqP9c5X9KM-5" value="" style="html=1;shadow=0;dashed=0;align=center;verticalAlign=middle;shape=mxgraph.arrows2.arrow;dy=0.67;dx=21.67;direction=north;notch=0;strokeColor=#666666;fillColor=#f5f5f5;fontColor=#333333;sketch=1;curveFitting=1;jiggle=2;container=0;" parent="1" vertex="1">
          <mxGeometry x="370" y="420" width="50" height="70" as="geometry" />
        </mxCell>
        <mxCell id="4YILZ2q9aPKqP9c5X9KM-6" value="" style="html=1;shadow=0;dashed=0;align=center;verticalAlign=middle;shape=mxgraph.arrows2.arrow;dy=0.67;dx=21.67;direction=north;notch=0;strokeColor=#666666;rotation=-180;fillColor=#f5f5f5;fontColor=#333333;sketch=1;curveFitting=1;jiggle=2;container=0;" parent="1" vertex="1">
          <mxGeometry x="370" y="520" width="50" height="70" as="geometry" />
        </mxCell>
        <mxCell id="4YILZ2q9aPKqP9c5X9KM-7" value="" style="html=1;shadow=0;dashed=0;align=center;verticalAlign=middle;shape=mxgraph.arrows2.arrow;dy=0.67;dx=21.67;direction=north;notch=0;strokeColor=#666666;rotation=-90;fillColor=#f5f5f5;fontColor=#333333;sketch=1;curveFitting=1;jiggle=2;container=0;" parent="1" vertex="1">
          <mxGeometry x="420" y="470" width="50" height="70" as="geometry" />
        </mxCell>
        <mxCell id="4YILZ2q9aPKqP9c5X9KM-8" value="" style="html=1;shadow=0;dashed=0;align=center;verticalAlign=middle;shape=mxgraph.arrows2.arrow;dy=0.67;dx=21.67;direction=north;notch=0;strokeColor=#666666;rotation=90;fillColor=#f5f5f5;fontColor=#333333;sketch=1;curveFitting=1;jiggle=2;container=0;" parent="1" vertex="1">
          <mxGeometry x="320" y="470" width="50" height="70" as="geometry" />
        </mxCell>
        <mxCell id="nL1AtrRoDOZ6n--MC116-1" value="&lt;font style=&quot;font-size: 18px;&quot; color=&quot;#666666&quot;&gt;Printer&lt;/font&gt;&lt;div&gt;&lt;font style=&quot;font-size: 18px;&quot; color=&quot;#666666&quot;&gt;&lt;br&gt;&lt;/font&gt;&lt;/div&gt;&lt;div&gt;&lt;font style=&quot;font-size: 18px;&quot; color=&quot;#666666&quot;&gt;&lt;br&gt;&lt;/font&gt;&lt;/div&gt;&lt;div&gt;&lt;font style=&quot;font-size: 18px;&quot; color=&quot;#666666&quot;&gt;&lt;br&gt;&lt;/font&gt;&lt;/div&gt;&lt;div&gt;&lt;br&gt;&lt;/div&gt;&lt;div&gt;&lt;br&gt;&lt;/div&gt;&lt;div&gt;&lt;font style=&quot;font-size: 18px;&quot; color=&quot;#666666&quot;&gt;&lt;br&gt;&lt;/font&gt;&lt;/div&gt;&lt;div&gt;&lt;br&gt;&lt;/div&gt;" style="rounded=1;whiteSpace=wrap;html=1;fillColor=#dae8fc;strokeColor=#6c8ebf;container=0;" vertex="1" parent="1">
          <mxGeometry x="450" y="792" width="160" height="160" as="geometry" />
        </mxCell>
        <mxCell id="nL1AtrRoDOZ6n--MC116-7" value="&lt;div style=&quot;text-align: justify;&quot;&gt;&lt;span style=&quot;background-color: initial;&quot;&gt;&lt;font face=&quot;Comic Sans MS&quot; style=&quot;font-size: 5px;&quot;&gt;&lt;br&gt;&lt;/font&gt;&lt;/span&gt;&lt;/div&gt;&lt;div style=&quot;text-align: justify;&quot;&gt;&lt;span style=&quot;background-color: initial;&quot;&gt;&lt;font face=&quot;Comic Sans MS&quot; style=&quot;font-size: 5px;&quot;&gt;Lorem ipsum dolor&amp;nbsp; &amp;nbsp; &amp;nbsp; &amp;nbsp; &amp;nbsp; &amp;nbsp; &amp;nbsp; &amp;nbsp; consectetuer adipiscing elit. Aenean commodo&lt;br&gt; ligula eget dolor. Aenean massa. Cum sociis natoque penatibus et magnis dis&lt;/font&gt;&lt;/span&gt;&lt;/div&gt;" style="shape=note;whiteSpace=wrap;html=1;backgroundOutline=1;darkOpacity=0.05;rotation=15;fillColor=#dae8fc;strokeColor=#666666;sketch=1;curveFitting=1;jiggle=2;" vertex="1" parent="1">
          <mxGeometry x="490" y="830" width="80" height="100" as="geometry" />
        </mxCell>
        <mxCell id="nL1AtrRoDOZ6n--MC116-8" value="Internet" style="ellipse;shape=cloud;whiteSpace=wrap;html=1;fillColor=#dae8fc;strokeColor=#6c8ebf;fontSize=18;" vertex="1" parent="1">
          <mxGeometry x="160" y="952" width="120" height="80" as="geometry" />
        </mxCell>
      </root>
    </mxGraphModel>
  </diagram>
</mxfile>
